<svg xmlns="http://www.w3.org/2000/svg" width="1200" height="1200" viewBox="0 0 1200 1200" version="1.1">
	<path d="M 739.246 117.664 C 738.556 117.942, 731.444 125.977, 723.440 135.521 L 708.889 152.872 700.694 147.274 C 687.556 138.300, 672.560 132.172, 657.119 129.468 C 643.844 127.143, 612.430 127.467, 599.705 130.060 C 584.453 133.168, 568.342 140.252, 556.313 149.138 C 553.438 151.262, 550.862 153, 550.590 153 C 550.317 153, 543.944 145.687, 536.427 136.750 C 528.911 127.813, 521.602 119.992, 520.185 119.370 C 517.056 117.997, 512.423 119.340, 510.979 122.039 C 510.356 123.204, 510 168.383, 510 246.390 L 510 368.912 439.750 369.262 C 371.168 369.603, 369.263 369.665, 359.500 371.863 C 330.188 378.464, 303.367 391.807, 282 410.421 C 256.509 432.627, 236.279 466.946, 229.163 500.057 C 225.249 518.271, 225 525.912, 225 627.961 L 225 727 344.945 727 L 464.890 727 465.253 655.750 C 465.572 593.125, 465.826 583.433, 467.353 575.688 C 470.329 560.585, 473.928 547.939, 478.648 536 C 504.267 471.193, 562.525 424.253, 631.119 413.151 C 647.897 410.436, 657.505 410.041, 707.250 410.019 L 750 410 750 266.135 L 750 122.270 747.927 119.635 C 745.944 117.113, 742.532 116.338, 739.246 117.664 M 788.259 235.779 C 782.769 236.656, 783 232.061, 783 340.223 L 783 440 720.750 440.082 C 686.513 440.127, 657.375 440.315, 656 440.498 C 654.625 440.682, 650.027 441.088, 645.783 441.400 C 623.011 443.078, 592.484 453.734, 571.786 467.230 C 529.042 495.101, 501.790 539.801, 496.021 591.500 C 495.455 596.572, 495.013 628.111, 495.008 663.770 L 495 727.040 662.750 726.728 L 830.500 726.417 841.500 723.821 C 873.363 716.302, 900.288 702.123, 921.860 681.503 C 952.273 652.432, 969.618 617.268, 973.982 575.835 C 974.583 570.126, 974.972 503.326, 974.983 403.885 L 975 241.270 972.927 238.635 C 971.456 236.764, 969.922 236, 967.637 236 C 964.822 236, 962.531 237.890, 949.324 251.102 L 934.229 266.204 927.539 262.169 C 914.083 254.053, 895.260 248.989, 878.640 249.013 C 862.761 249.036, 842.926 254.457, 829.799 262.362 L 824.205 265.731 809.889 251.389 C 795.820 237.294, 792.729 235.064, 788.259 235.779 M 551 871 L 551 945 562 945 L 573 945 573 930.667 L 573 916.335 576.941 913.167 C 579.109 911.425, 581.247 910.006, 581.691 910.013 C 582.136 910.020, 587.383 917.895, 593.351 927.513 L 604.202 945 616.669 945 L 629.136 945 627.231 942.250 C 606.697 912.610, 596.924 897.696, 597.629 897.076 C 598.108 896.655, 604.462 891.720, 611.750 886.110 C 619.038 880.500, 625 875.551, 625 875.112 C 625 873.390, 612.740 863.970, 611.627 864.836 C 611.007 865.319, 602.063 872.105, 591.750 879.918 L 573 894.122 573 845.561 L 573 797 562 797 L 551 797 551 871 M 927 871 L 927 945 938 945 L 949 945 949 939.911 L 949 934.822 952.250 937.569 C 961.547 945.425, 978.483 948.261, 990.917 944.043 C 1006.583 938.729, 1016.551 926.682, 1019.133 909.942 C 1021.143 896.910, 1017.757 882.908, 1010.322 873.505 C 998.083 858.026, 971.657 855.508, 953.386 868.078 L 949 871.096 949 834.048 L 949 797 938 797 L 927 797 927 871 M 90.786 869.250 L 90.500 931.500 88.154 936.221 C 85.533 941.494, 79.403 947.518, 74.640 949.502 C 72.913 950.221, 69.362 951.129, 66.750 951.518 C 61.392 952.318, 61.963 950.573, 61.769 966.750 L 61.688 973.500 64.969 973.823 C 74 974.711, 89.605 968.482, 97.881 960.685 C 102.895 955.962, 108.736 946.515, 111.244 939.072 C 113.422 932.609, 113.464 931.456, 113.778 869.750 L 114.097 807 102.585 807 L 91.072 807 90.786 869.250 M 152 876 L 152 945 197 945 L 242 945 242 934.500 L 242 924 208 924 L 174 924 174 865.500 L 174 807 163 807 L 152 807 152 876 M 271 876 L 271 945 282 945 L 293 945 293 921 L 293 897 307.290 897 C 326.189 897, 335.280 894.602, 344.751 887.118 C 358.678 876.113, 363.947 850.040, 355.993 831.484 C 353.287 825.172, 344.649 816.357, 337.760 812.879 C 327.758 807.829, 321.970 807.031, 295.250 807.015 L 271 807 271 876 M 376 817.500 L 376 828 393 828 L 410 828 410.042 832.750 C 410.066 835.362, 410.125 861.688, 410.174 891.250 L 410.263 945 421.631 945 L 433 945 433 886.500 L 433 828 450.500 828 L 468 828 468 817.500 L 468 807 422 807 L 376 807 376 817.500 M 293 852 L 293 876 303.951 876 C 318.759 876, 323.817 874.793, 329.323 869.947 C 343.299 857.644, 338.254 832.794, 321.030 829.100 C 318.209 828.495, 310.749 828, 304.451 828 L 293 828 293 852 M 760 847 L 760 865 753 865 L 746 865 746 873.500 L 746 882 753 882 L 760 882 760 913.500 L 760 945 771 945 L 782 945 782 913.500 L 782 882 792 882 L 802 882 802 873.500 L 802 865 792 865 L 782 865 782 847 L 782 829 771 829 L 760 829 760 847 M 673.698 861.096 C 661.629 863.936, 650.090 873.309, 644.833 884.543 C 642.258 890.046, 641.626 892.831, 641.229 900.418 C 639.799 927.754, 657.731 946, 686.029 946 C 706.621 946, 723.204 934.141, 728.532 915.606 C 730.835 907.592, 730.154 893.702, 727.067 885.715 C 722.849 874.804, 711.033 864.692, 698.650 861.395 C 692.935 859.873, 679.573 859.713, 673.698 861.096 M 848.698 861.096 C 836.629 863.936, 825.090 873.309, 819.833 884.543 C 817.258 890.046, 816.626 892.831, 816.229 900.418 C 814.799 927.754, 832.731 946, 861.029 946 C 881.621 946, 898.204 934.141, 903.532 915.606 C 905.835 907.592, 905.154 893.702, 902.067 885.715 C 897.849 874.804, 886.033 864.692, 873.650 861.395 C 867.935 859.873, 854.573 859.713, 848.698 861.096 M 1062.500 862.001 C 1051.385 865.713, 1042.531 874.317, 1037.803 886 C 1035.913 890.668, 1035.577 893.391, 1035.577 904 C 1035.577 919.246, 1037.467 925.068, 1045.149 933.473 C 1052.460 941.473, 1060.363 945.101, 1071.912 945.759 C 1082.972 946.390, 1088.824 944.712, 1097.750 938.352 L 1104 933.899 1104 939.449 L 1104 945 1114.500 945 C 1124.305 945, 1125.006 944.868, 1125.085 943 C 1125.131 941.900, 1125.170 924.575, 1125.170 904.500 C 1125.170 884.425, 1125.131 867.309, 1125.085 866.464 C 1125.014 865.172, 1123.447 864.973, 1115.250 865.214 C 1105.685 865.495, 1105.494 865.547, 1105.201 868 C 1104.556 873.395, 1104.085 873.500, 1099.715 869.221 C 1093.537 863.174, 1087.224 860.699, 1077 860.316 C 1070.508 860.073, 1067.083 860.471, 1062.500 862.001 M 964.183 878.902 C 958.639 880.817, 952.836 885.578, 950.415 890.200 C 948.130 894.561, 948.500 911.099, 950.991 915.982 C 954.782 923.414, 963.303 928.013, 973.218 927.978 C 981.028 927.951, 986.260 925.688, 991.210 920.198 C 998.536 912.073, 999.784 899.885, 994.318 889.844 C 991.036 883.813, 986.814 880.350, 980.386 878.416 C 974.228 876.562, 970.644 876.670, 964.183 878.902 M 676.500 879.372 C 672.353 881.305, 666.420 887.727, 664.479 892.384 C 662.215 897.820, 662.384 908.818, 664.816 914.318 C 667.198 919.701, 673.114 925.553, 677.710 927.069 C 679.628 927.702, 684.069 928.038, 687.578 927.814 C 695.840 927.288, 701.245 923.702, 705.207 916.119 C 707.447 911.829, 708 909.458, 708 904.129 C 708 893.040, 704.774 886.033, 697.356 881.011 C 692.874 877.978, 681.424 877.078, 676.500 879.372 M 851.500 879.372 C 847.353 881.305, 841.420 887.727, 839.479 892.384 C 837.215 897.820, 837.384 908.818, 839.816 914.318 C 842.198 919.701, 848.114 925.553, 852.710 927.069 C 854.628 927.702, 859.069 928.038, 862.578 927.814 C 870.840 927.288, 876.245 923.702, 880.207 916.119 C 882.447 911.829, 883 909.458, 883 904.129 C 883 893.040, 879.774 886.033, 872.356 881.011 C 867.874 877.978, 856.424 877.078, 851.500 879.372 M 1070.500 879.900 C 1061.814 883.930, 1056.875 892.122, 1056.875 902.500 C 1056.875 913.009, 1061.622 921.138, 1070.278 925.451 C 1079.238 929.916, 1090.599 928.552, 1097.376 922.197 C 1102.238 917.638, 1103.953 912.574, 1103.978 902.710 C 1104.010 890.106, 1100.813 884.533, 1091 880.084 C 1085.173 877.442, 1075.975 877.360, 1070.500 879.900" stroke="none" fill="black" fill-rule="evenodd"/>
</svg>